<svg width="41" height="40" viewBox="0 0 41 40" fill="none" xmlns="http://www.w3.org/2000/svg">
<path d="M29.5497 23.9405C29.7093 22.6238 29.829 21.3071 29.829 19.9504C29.829 18.5938 29.7093 17.2771 29.5497 15.9603H36.2929C36.6121 17.2372 36.8116 18.5738 36.8116 19.9504C36.8116 21.327 36.6121 22.6637 36.2929 23.9405M26.0185 35.0329C27.2155 32.8184 28.1332 30.4244 28.7716 27.9306H34.657C32.7241 31.2589 29.6576 33.7801 26.0185 35.0329ZM25.5197 23.9405H16.1829C15.9834 22.6238 15.8637 21.3071 15.8637 19.9504C15.8637 18.5938 15.9834 17.2571 16.1829 15.9603H25.5197C25.6993 17.2571 25.8389 18.5938 25.8389 19.9504C25.8389 21.3071 25.6993 22.6238 25.5197 23.9405ZM20.8513 35.831C19.1954 33.4369 17.8587 30.7835 17.0408 27.9306H24.6618C23.8439 30.7835 22.5072 33.4369 20.8513 35.831ZM12.8711 11.9703H7.04561C8.95857 8.63298 12.0228 6.1078 15.6642 4.8679C14.4672 7.0824 13.5694 9.47645 12.8711 11.9703ZM7.04561 27.9306H12.8711C13.5694 30.4244 14.4672 32.8184 15.6642 35.0329C12.0305 33.7794 8.97052 31.2578 7.04561 27.9306ZM5.40968 23.9405C5.09047 22.6637 4.89096 21.327 4.89096 19.9504C4.89096 18.5738 5.09047 17.2372 5.40968 15.9603H12.1529C11.9933 17.2771 11.8736 18.5938 11.8736 19.9504C11.8736 21.3071 11.9933 22.6238 12.1529 23.9405M20.8513 4.04994C22.5072 6.44399 23.8439 9.11734 24.6618 11.9703H17.0408C17.8587 9.11734 19.1954 6.44399 20.8513 4.04994ZM34.657 11.9703H28.7716C28.1472 9.49931 27.2226 7.11411 26.0185 4.8679C29.6893 6.12478 32.7418 8.65848 34.657 11.9703ZM20.8513 0C9.81872 0 0.900879 8.97769 0.900879 19.9504C0.900879 25.2416 3.00279 30.3161 6.74422 34.0575C8.59679 35.9101 10.7961 37.3796 13.2166 38.3822C15.6371 39.3848 18.2314 39.9008 20.8513 39.9008C26.1425 39.9008 31.217 37.7989 34.9584 34.0575C38.6998 30.3161 40.8017 25.2416 40.8017 19.9504C40.8017 17.3305 40.2857 14.7362 39.2831 12.3157C38.2805 9.89523 36.811 7.69591 34.9584 5.84334C33.1058 3.99078 30.9065 2.52124 28.486 1.51864C26.0655 0.516033 23.4712 0 20.8513 0Z" fill="#7B7B82"/>
</svg>
