<svg width="41" height="40" viewBox="0 0 41 40" fill="none" xmlns="http://www.w3.org/2000/svg">
<path d="M12.3729 0H29.1313C35.5154 0 40.7025 5.18711 40.7025 11.5712V28.3296C40.7025 31.3985 39.4834 34.3417 37.3134 36.5117C35.1434 38.6817 32.2002 39.9008 29.1313 39.9008H12.3729C5.98881 39.9008 0.801697 34.7137 0.801697 28.3296V11.5712C0.801697 8.50236 2.02081 5.55917 4.19084 3.38914C6.36087 1.21911 9.30406 0 12.3729 0ZM11.9739 3.99008C10.0691 3.99008 8.2423 4.74677 6.89539 6.09369C5.54847 7.4406 4.79178 9.26741 4.79178 11.1722V28.7286C4.79178 32.6987 8.0038 35.9108 11.9739 35.9108H29.5303C31.4351 35.9108 33.2619 35.1541 34.6089 33.8072C35.9558 32.4602 36.7125 30.6334 36.7125 28.7286V11.1722C36.7125 7.2021 33.5004 3.99008 29.5303 3.99008H11.9739ZM31.2261 6.98265C31.8875 6.98265 32.5218 7.24539 32.9895 7.71307C33.4572 8.18075 33.7199 8.81505 33.7199 9.47645C33.7199 10.1378 33.4572 10.7722 32.9895 11.2398C32.5218 11.7075 31.8875 11.9703 31.2261 11.9703C30.5647 11.9703 29.9304 11.7075 29.4627 11.2398C28.995 10.7722 28.7323 10.1378 28.7323 9.47645C28.7323 8.81505 28.995 8.18075 29.4627 7.71307C29.9304 7.24539 30.5647 6.98265 31.2261 6.98265ZM20.7521 9.97521C23.3977 9.97521 25.9349 11.0262 27.8057 12.8969C29.6764 14.7676 30.7273 17.3048 30.7273 19.9504C30.7273 22.596 29.6764 25.1332 27.8057 27.004C25.9349 28.8747 23.3977 29.9256 20.7521 29.9256C18.1065 29.9256 15.5693 28.8747 13.6986 27.004C11.8279 25.1332 10.7769 22.596 10.7769 19.9504C10.7769 17.3048 11.8279 14.7676 13.6986 12.8969C15.5693 11.0262 18.1065 9.97521 20.7521 9.97521ZM20.7521 13.9653C19.1648 13.9653 17.6424 14.5959 16.52 15.7183C15.3976 16.8407 14.767 18.3631 14.767 19.9504C14.767 21.5378 15.3976 23.0601 16.52 24.1825C17.6424 25.305 19.1648 25.9356 20.7521 25.9356C22.3395 25.9356 23.8618 25.305 24.9842 24.1825C26.1067 23.0601 26.7372 21.5378 26.7372 19.9504C26.7372 18.3631 26.1067 16.8407 24.9842 15.7183C23.8618 14.5959 22.3395 13.9653 20.7521 13.9653Z" fill="#7B7B82"/>
</svg>
