<svg width="41" height="40" viewBox="0 0 41 40" fill="none" xmlns="http://www.w3.org/2000/svg">
<path d="M40.5042 0.0223606C40.5042 0.0223606 36.8442 2.67298 34.8093 3.42458C33.717 1.88471 32.2653 0.79329 30.6506 0.297932C29.0359 -0.197426 27.336 -0.0728223 25.781 0.654891C24.2259 1.3826 22.8906 2.67832 21.9558 4.36678C21.0209 6.05525 20.5315 8.05501 20.5538 10.0956V12.3193C17.3665 12.4206 14.2083 11.5539 11.3603 9.79639C8.51236 8.03887 6.06313 5.44508 4.23074 2.24603C4.23074 2.24603 -3.02396 22.2591 13.2991 31.1538C9.5639 34.2624 5.11429 35.8211 0.603394 35.6011C16.9265 46.7195 36.8769 35.6011 36.8769 10.0289C36.8769 9.4107 36.8261 8.79252 36.7318 8.18323C38.5817 5.94622 40.5042 0.0223606 40.5042 0.0223606Z" fill="#7B7B82"/>
</svg>
