<svg width="41" height="40" viewBox="0 0 41 40" fill="none" xmlns="http://www.w3.org/2000/svg">
<path d="M34.7379 5.81666C30.8587 1.95736 26.1194 0 20.6529 0C15.1355 0 10.3829 1.95957 6.52582 5.81887C2.66209 9.67817 0.702515 14.4352 0.702515 19.9504C0.702515 25.4146 2.65987 30.154 6.51917 34.0354C10.3785 37.928 15.1333 39.9008 20.6529 39.9008C26.1216 39.9008 30.8609 37.928 34.7424 34.0421C38.6327 30.1562 40.6034 25.4146 40.6034 19.9504C40.6034 14.4352 38.6305 9.67817 34.7379 5.81666ZM31.6079 30.9076C29.0875 33.4325 26.208 34.8711 22.8697 35.3078V24.3839H27.3031V19.9504H22.8697V16.847C22.8697 16.6722 22.9041 16.499 22.9711 16.3375C23.0381 16.176 23.1363 16.0293 23.26 15.9058C23.3837 15.7822 23.5306 15.6843 23.6922 15.6176C23.8539 15.5509 24.0271 15.5167 24.2019 15.517H27.3031V11.0836H24.2063C22.5615 11.0836 21.1894 11.6887 20.0899 12.9057C18.9904 14.1182 18.4362 15.599 18.4362 17.3569V19.9504H14.0028V24.3839H18.4362V35.3123C15.0624 34.88 12.1718 33.4391 9.66469 30.9143C6.61671 27.8464 5.13594 24.2597 5.13594 19.9504C5.13594 15.5924 6.61449 11.9969 9.66247 8.95552C12.6994 5.91198 16.2949 4.43343 20.6529 4.43343C24.9644 4.43343 28.5489 5.91419 31.6146 8.96217C34.6803 12.0035 36.1699 15.599 36.1699 19.9504C36.1699 24.2531 34.6781 27.8397 31.6079 30.9076Z" fill="#7B7B82"/>
</svg>
